<svg xmlns="http://www.w3.org/2000/svg" viewBox="0 0 2777.4285 836.132"><defs><style>.cls-1{fill:#231f20;}</style></defs><g id="Tagline"><g id="Tagline-2" data-name="Tagline"><path class="cls-1" d="M0,1.832H24.0454L105.1113,119.08V1.832h26.106v160.3H106.9434l-80.837-116.79v116.79H0Z"/><path class="cls-1" d="M167.7427,156.7505q-5.3834-5.3782-5.3819-14.0835V1.832H279.8379V24.9609H189.1543v43.51h83.814V91.8286h-83.814v47.1743h90.6836v23.1289H182.0552Q173.1241,162.1318,167.7427,156.7505Z"/><path class="cls-1" d="M345.5586,80.3789,291.7437,1.832h30.228l38.93,56.563,38.93-56.563h29.9991l-53.815,78.5469,56.105,81.7529h-30.228l-40.9912-59.998-41.22,59.998h-30.228Z"/><path class="cls-1" d="M487.9956,24.9609H437.1577V1.832H565.6265V24.9609H514.7886V162.1318h-26.793Z"/><path class="cls-1" d="M577.3032,156.98a46.5615,46.5615,0,0,1-17.4038-19.6943q-6.1832-12.7091-6.1831-29.1973h26.335q0,14.658,6.4121,23.4726,6.408,8.8177,16.7168,8.8165H621.5q10.5307,0,16.8315-9.2745,6.296-9.2746,6.2979-24.8466V1.832h26.793v105.34q0,17.1753-6.0689,29.999A45.9612,45.9612,0,0,1,648.1787,156.98q-11.11,6.9881-25.7627,6.9844H603.18A47.9168,47.9168,0,0,1,577.3032,156.98Z"/><path class="cls-1" d="M708.9766,150.2236q-13.74-13.7394-13.74-37.5556h26.335q0,12.8276,6.7553,20.2666,6.7523,7.4436,18.6636,7.4424H772.41q11.217,0,18.0913-4.9239a15.2045,15.2045,0,0,0,6.87-12.9385V112.439a13.0173,13.0173,0,0,0-4.8086-10.3052q-4.8092-4.1221-13.7407-5.7251L737.1436,89.31q-19.4664-3.2045-29.8843-12.8243-10.4232-9.6181-10.42-24.5029V39.3877a34.8477,34.8477,0,0,1,6.2974-20.61q6.296-8.9311,17.7476-13.8545Q732.3325.0015,747.4487,0h25.877q14.1958,0,25.0757,5.8394a41.04,41.04,0,0,1,16.832,16.6025,50.2741,50.2741,0,0,1,5.9541,24.7319H795.0811q0-10.5307-6.0684-17.06-6.0711-6.5266-15.687-6.5264h-25.877q-10.7666,0-17.2895,4.6943a14.8565,14.8565,0,0,0-6.5264,12.7095v8.2442a13.88,13.88,0,0,0,4.58,10.6484q4.5783,4.24,13.2822,5.61l41.6783,7.3281q19.6933,3.435,30.3427,12.7094a30.0265,30.0265,0,0,1,10.6485,23.7017v14.8848a34.9534,34.9534,0,0,1-6.4121,20.7246q-6.4131,9.049-18.0909,14.0835t-26.7934,5.0381h-26.335Q722.7128,163.9639,708.9766,150.2236Z"/><path class="cls-1" d="M935.1123,156.5215a50.7906,50.7906,0,0,1-20.0381-21.0684q-7.1-13.6215-7.0986-31.4873V59.998q0-17.8623,7.2129-31.4877A51.1633,51.1633,0,0,1,935.57,7.4424Q948.7349.0031,965.9121,0h25.19q16.4883,0,29.083,6.7554A47.6833,47.6833,0,0,1,1039.65,25.7622q6.87,12.2535,6.87,28.2817h-26.335q0-13.74-8.0156-22.0986-8.0185-8.357-21.0674-8.3584h-25.19q-13.97,0-22.5566,10.19-8.5869,10.1925-8.5869,27.1368V103.05q0,16.95,8.3584,27.1367,8.3568,10.1917,22.0986,10.1905h26.1055q13.2787,0,21.7548-9.3892,8.47-9.3874,8.4737-24.0449V99.1567H977.1338V75.7988h70.7607v31.1441q0,16.719-7.1,29.6552a50.6055,50.6055,0,0,1-19.9228,20.1524q-12.8277,7.2137-29.541,7.2134H965.2256Q948.05,163.9639,935.1123,156.5215Z"/><path class="cls-1" d="M1073.54,1.832h82.669q19.6918,0,31.831,10.7627,12.1348,10.7667,12.1368,28.396V57.25a32.6313,32.6313,0,0,1-7.2139,20.9531q-7.2129,9.049-20.0371,13.3965v.458a35.8566,35.8566,0,0,1,11.7939,11.107,66.247,66.247,0,0,1,7.6709,17.518l12.8242,41.4492h-27.7089L1165.14,122.5146q-2.9779-10.3044-9.16-15.8007a21.0359,21.0359,0,0,0-14.4268-5.4961h-41.22v60.914H1073.54Zm76.7149,76.2569q10.5308,0,16.831-5.7251a19.18,19.18,0,0,0,6.2979-14.8848V41.6777a15.7045,15.7045,0,0,0-4.8086-11.9077q-4.8092-4.5783-12.8242-4.58h-55.418v52.899Z"/><path class="cls-1" d="M1319.7129,122.5146h-63.6621l-14.8848,39.6172h-27.709l62.2881-160.3h12.1367q12.3663,0,17.1748,12.1368l57.25,148.163h-27.9375Zm-56.1045-22.4418h48.5478l-24.0449-65.0362h-.2295Z"/><path class="cls-1" d="M1380.168,1.832h82.2109q20.1474,0,32.5176,11.3355,12.3661,11.3349,12.3662,29.8843V65.0356q0,19.4671-12.9385,31.2588-12.94,11.7972-34.0068,11.7935h-53.3565v54.0439H1380.168Zm79.6914,82.898q9.3882,0,15-5.7251,5.6088-5.7218,5.61-14.8853V43.7388q0-8.469-5.0381-13.5108-5.0389-5.0346-13.5107-5.0381h-54.96V84.73Z"/><path class="cls-1" d="M1527.4131,1.832h26.793V69.8447H1633.44V1.832h26.5644v160.3H1633.44V93.2026h-79.2334v68.9292h-26.793Z"/><path class="cls-1" d="M1818.7,171.979l-18.0908-17.8623a56.3087,56.3087,0,0,1-31.6026,9.8472h-24.0449q-17.4053,0-30.5713-7.4424a51.8544,51.8544,0,0,1-20.4951-21.0684q-7.3315-13.6215-7.3281-31.4873V59.998q0-17.8623,7.3281-31.4877A51.5049,51.5049,0,0,1,1714.62,7.4424Q1728.0162.0031,1745.42,0h24.2744q17.4009,0,30.6856,7.4424A51.7436,51.7436,0,0,1,1820.99,28.51q7.3257,13.6273,7.3282,31.4877v42.5938a59.6449,59.6449,0,0,1-10.5342,34.1211l17.8623,17.6328Zm-35.7236-35.2661-21.9844-21.7549,16.7168-17.6333,21.0683,20.61a40.9815,40.9815,0,0,0,2.7481-15.3433V60.9141q0-16.7139-8.8164-27.0225-8.8184-10.3044-23.2442-10.3047H1745.42q-14.2017,0-23.1289,10.3047-8.9311,10.3051-8.9306,27.0225V103.05q0,16.719,8.7021,27.022,8.7,10.3052,23.1289,10.3052h23.8154A29.3788,29.3788,0,0,0,1782.9766,136.7129Z"/><path class="cls-1" d="M1861.0635,156.8647q-5.2705-5.2653-5.2666-13.9687V1.832H1882.59V138.7739h87.02v23.3579H1875.49Q1866.3291,162.1318,1861.0635,156.8647Z"/><path class="cls-1" d="M2052.2764,1.832h82.6689q19.6918,0,31.8311,10.7627,12.1347,10.7667,12.1367,28.396V57.25a32.6313,32.6313,0,0,1-7.2139,20.9531q-7.2129,9.049-20.0371,13.3965v.458a35.8579,35.8579,0,0,1,11.794,11.107,66.2535,66.2535,0,0,1,7.6709,17.518l12.8242,41.4492h-27.709l-12.3662-39.6172q-2.9781-10.3044-9.16-15.8007a21.0355,21.0355,0,0,0-14.4267-5.4961h-41.22v60.914h-26.7929Zm76.7148,76.2569q10.5308,0,16.8311-5.7251A19.18,19.18,0,0,0,2152.12,57.479V41.6777a15.7042,15.7042,0,0,0-4.8086-11.9077q-4.809-4.5783-12.8242-4.58h-55.418v52.899Z"/><path class="cls-1" d="M2210.8555,156.7505q-5.3834-5.3782-5.3809-14.0835V1.832h117.4766V24.9609h-90.6836v43.51h83.8135V91.8286h-83.8135v47.1743h90.6836v23.1289H2225.168Q2216.2369,162.1318,2210.8555,156.7505Z"/><path class="cls-1" d="M2440.1973,122.5146h-63.6621L2361.65,162.1318h-27.709L2396.23,1.832h12.1367q12.3663,0,17.1748,12.1368l57.25,148.163h-27.9375Zm-56.1045-22.4418h48.5478l-24.0449-65.0362h-.2295Z"/><path class="cls-1" d="M2518.06,156.5215a50.9968,50.9968,0,0,1-19.9229-21.0684q-7.1-13.6215-7.0986-31.4873V59.998q0-17.8623,7.2129-31.4877a51.3847,51.3847,0,0,1,20.2666-21.0679Q2531.5708.0031,2548.7461,0H2573.02q16.2584,0,28.8545,6.9844a48.3929,48.3929,0,0,1,19.4649,19.6938q6.87,12.71,6.87,29.4268h-26.335q0-14.6529-8.0146-23.5869-8.02-8.9311-20.84-8.9312h-24.2734q-13.9718,0-22.4424,10.3047-8.4741,10.3051-8.4726,27.0225V103.05q0,16.95,8.2441,27.1367,8.2441,10.1917,21.7549,10.1905h24.7314a26.4846,26.4846,0,0,0,21.5264-10.0762q8.2441-10.0745,8.2441-26.106h26.335q0,17.8623-6.9844,31.3731a50.6793,50.6793,0,0,1-19.6943,20.9536q-12.709,7.4443-29.4268,7.4424H2547.83Q2530.88,163.9639,2518.06,156.5215Z"/><path class="cls-1" d="M2687.7461,24.9609h-50.8379V1.832H2765.377V24.9609h-50.8379V162.1318h-26.793Z"/></g></g><g id="Boiler"><g id="Boiler-2" data-name="Boiler"><path class="cls-1" d="M22.3059,810.043q-19.8786-19.45-19.8774-50.107V249.7582H276.5667q77.0228,0,123.8173,36.8545,46.7817,36.8616,46.7945,97.3149v42.2392a113.9392,113.9392,0,0,1-53.006,96.0721v.8281q40.5687,13.2583,65.0144,44.7236A113.1845,113.1845,0,0,1,483.62,639.0165v41.4111q0,68.7545-47.2079,108.91-47.2086,40.1805-127.5445,40.1682H73.6545Q42.1692,829.5057,22.3059,810.043Zm259.2295-312.65q30.6315,0,49.6923-19.8774,19.0442-19.8768,19.0493-51.3485V392.21q0-26.4972-21.1189-42.2392-21.1189-15.7233-55.9051-15.7356H99.3287V497.3927Zm19.0494,247.6359q40.5687,0,63.3581-18.2212,22.7688-18.2076,22.7752-50.52V639.0165q0-28.1451-19.8761-45.137-19.8787-16.9654-53.0061-16.9783H99.3287V745.0286Z"/><path class="cls-1" d="M644.2354,809.2149q-48.0432-26.9049-74.5385-76.196-26.5164-49.266-26.5036-113.8785V460.1235q0-64.6009,26.5036-113.88,26.4954-49.264,74.5385-76.1947,48.0237-26.9047,110.9808-26.917H843.007q62.93,0,111.3943,26.917,48.4506,26.9223,74.9531,76.1947,26.4953,49.2853,26.5023,113.88V619.14q0,64.599-26.5023,113.8785-26.5165,49.2853-74.9531,76.196Q905.9506,836.1371,843.007,836.132H755.2162Q692.265,836.132,644.2354,809.2149ZM843.007,750.8254q51.3408,0,83.6491-37.2692,32.3-37.2691,32.3-97.73V463.436q0-60.4455-31.8871-97.7283-31.8928-37.2691-84.0625-37.27H756.0443q-52.1773,0-84.0637,37.27-31.893,37.2692-31.8858,97.7283V615.8266q0,60.4668,31.8858,97.73,31.8735,37.2693,84.0637,37.2692Z"/><path class="cls-1" d="M1142.637,249.7582h96.9V829.5057h-96.9Z"/><path class="cls-1" d="M1370.0739,810.4564q-19.0635-19.0422-19.0493-50.52V249.7582h96.9v495.27H1762.646v84.4771H1422.2505Q1389.1155,829.5057,1370.0739,810.4564Z"/><path class="cls-1" d="M1817.017,810.043q-19.4693-19.45-19.4627-50.9351v-509.35h424.8725v83.649h-327.971V490.7678h303.1249v84.4771H1894.4558V745.8567h327.971v83.649H1868.78Q1836.48,829.5057,1817.017,810.043Z"/><path class="cls-1" d="M2301.2049,249.7582h298.9856q71.22,0,115.12,38.9254,43.8915,38.9383,43.8967,102.6984v58.8028q0,43.0744-26.09,75.7813-26.0877,32.7274-72.4675,48.4507v1.6562a129.6479,129.6479,0,0,1,42.6526,40.1683q16.15,24.4378,27.7465,63.3582l46.38,149.9062H2677.2146l-44.7236-143.28q-10.772-37.2711-33.13-57.1466a76.0692,76.0692,0,0,0-52.1754-19.8774H2398.1063v220.304h-96.9014Zm277.4519,275.7944q38.0845,0,60.8738-20.7055,22.7688-20.6921,22.7752-53.8342V393.8663q0-26.4952-17.3917-43.0673-17.3945-16.5579-46.38-16.5637h-200.428V525.5526Z"/></g></g></svg>